<svg width="38" height="38" viewBox="0 0 38 38" fill="none" xmlns="http://www.w3.org/2000/svg">
<path d="M19 0C29.4934 0 38 8.50659 38 19C38 29.4934 29.4934 38 19 38C8.50659 38 0 29.4934 0 19C0 8.50659 8.50659 0 19 0Z" fill="white"/>
<path d="M25.2165 27.7082C25.2165 27.7082 24.4609 26.8166 23.8313 26.0287C26.5807 25.2616 27.6301 23.5614 27.6301 23.5614C26.7696 24.1212 25.9511 24.5151 25.2165 24.7847C24.1671 25.2201 23.1597 25.5104 22.1733 25.6762C20.1584 26.0495 18.3115 25.9458 16.7374 25.6555C15.5411 25.4274 14.5127 25.0957 13.6522 24.764C13.1695 24.5773 12.6448 24.3493 12.1201 24.059C12.0571 24.0175 11.9942 23.9968 11.9312 23.9553C11.8892 23.9346 11.8682 23.9139 11.8473 23.8931C11.4695 23.6858 11.2596 23.5407 11.2596 23.5407C11.2596 23.5407 12.267 25.1994 14.9325 25.9873C14.3028 26.7751 13.5263 27.7082 13.5263 27.7082C8.88798 27.563 7.125 24.5566 7.125 24.5566C7.125 17.8803 10.1472 12.4687 10.1472 12.4687C13.1695 10.2295 16.0448 10.2917 16.0448 10.2917L16.2547 10.5405C12.4769 11.6186 10.7349 13.2566 10.7349 13.2566C10.7349 13.2566 11.1966 13.0078 11.9732 12.6553C14.2189 11.6808 16.0028 11.4113 16.7374 11.3491C16.8633 11.3284 16.9683 11.3076 17.0942 11.3076C18.3745 11.1418 19.8226 11.1003 21.3337 11.2662C23.3276 11.4942 25.4683 12.0748 27.6511 13.2566C27.6511 13.2566 25.993 11.7016 22.4251 10.6234L22.7189 10.2917C22.7189 10.2917 25.5943 10.2295 28.6165 12.4687C28.6165 12.4687 31.6388 17.8803 31.6388 24.5566C31.6388 24.5566 29.8548 27.563 25.2165 27.7082Z" fill="#338600"/>
<path d="M16.0482 18.4014C14.8613 18.4014 13.9243 19.4688 13.9243 20.771C13.9243 22.0732 14.8821 23.1405 16.0482 23.1405C17.2351 23.1405 18.1721 22.0732 18.1721 20.771C18.1929 19.4688 17.2351 18.4014 16.0482 18.4014Z" fill="white"/>
<path d="M23.6484 18.4014C22.4615 18.4014 21.5245 19.4688 21.5245 20.771C21.5245 22.0732 22.4824 23.1405 23.6484 23.1405C24.8353 23.1405 25.7723 22.0732 25.7723 20.771C25.7723 19.4688 24.8353 18.4014 23.6484 18.4014Z" fill="white"/>
</svg>
