<svg width="270" height="74" viewBox="0 0 270 74" fill="none" xmlns="http://www.w3.org/2000/svg">
<path d="M23.4332 45.6054C23.1763 48.1749 24.3799 52.0669 24.3799 52.0669L28.1258 51.9733C28.1258 51.9733 26.8863 48.1244 26.9084 45.6054C26.9312 43.0017 27.2432 41.424 28.3131 39.0502C29.4771 36.4674 30.6604 35.1642 32.9017 33.4314C35.4167 31.4871 40.3933 30.2475 40.3933 30.2475C40.3933 30.2475 35.5344 32.5845 33.089 34.9298C31.4937 36.4597 29.5304 39.3311 29.5304 39.3311C29.5304 39.3311 32.7927 39.5245 34.8682 39.3311C37.704 39.0668 39.3295 38.7679 41.9853 37.7391C44.8745 36.62 45.9203 34.8003 48.8214 33.7124C50.8645 32.9462 54.2529 32.4013 54.2529 32.4013C54.2529 32.4013 49.4769 23.2241 38.5204 25.1906C34.3065 25.947 31.8716 27.7191 29.5304 31.4649C27.2593 35.0987 25.5037 41.6722 25.5037 41.6722C25.5037 41.6722 25.0522 36.8864 25.7846 33.7124C26.0656 32.495 26.9772 28.1385 29.5304 25.9398C32.9017 23.0368 37.7131 20.639 40.3933 15.3579C43.132 9.96171 42.4535 0 42.4535 0C42.4535 0 33.089 2.15385 27.9385 7.11706C21.5923 13.2324 25.0355 25.9398 25.0355 25.9398C25.0355 25.9398 26.7177 19.6297 28.9686 16.2007C30.8856 13.2802 35.0555 9.64549 35.0555 9.64549C35.0555 9.64549 31.0549 15.5314 28.9686 19.5719C26.6596 24.0437 24.0054 31.4649 24.0054 31.4649C24.0054 31.4649 22.9453 21.1959 18.7612 16.7625C14.6347 12.3902 4.62075 10.6756 4.62075 10.6756C4.62075 10.6756 4.36817 15.3621 4.99533 18.2609C5.60997 21.1018 7.71105 25.1906 7.71105 25.1906C7.71105 25.1906 3.12364 30.2767 1.81138 34.3679C0.21941 39.3311 -0.359504 42.3324 0.219409 47.4783C1.90503 62.4615 13.1077 73.3959 28.1258 73.9799C44.982 74.6355 56.5004 59.0903 57.0622 47.4783C57.1936 44.7641 57.3432 43.1706 57.0622 40.4549C56.8361 38.2692 55.283 35.1171 55.283 35.1171C55.283 35.1171 53.9567 34.9667 53.1291 35.1171C52.2404 35.2786 50.9753 35.9599 50.9753 35.9599C50.9753 35.9599 52.1648 38.6304 52.4736 40.4549C52.8092 42.4381 52.8297 43.7788 52.725 45.7875C52.6293 47.6227 52.6279 48.612 52.0054 50.2876C50.4125 54.575 45.325 69.485 28.1258 69.485C21.7375 69.485 8.36657 67.5184 4.62075 47.4783C2.80147 37.7451 10.3331 28.5619 10.3331 28.5619C10.3331 28.5619 12.028 30.7682 13.4234 31.8395C14.7477 32.8561 16.0352 33.9663 17.3986 34.9298C19.6798 36.5419 20.8214 36.5217 22.1325 39.0502C23.3205 41.3415 23.7142 42.796 23.4332 45.6054Z" fill="white"/>
<path d="M18.0119 27.6256C16.0323 24.4208 12.2996 19.853 12.2996 19.853C12.2996 19.853 16.4605 23.0277 18.3865 25.5654C19.9199 27.5857 20.5404 28.6557 21.1022 30.435C21.4657 31.5858 21.4768 34.0871 21.4768 34.0871C21.4768 34.0871 19.5167 30.0616 18.0119 27.6256Z" fill="#338600"/>
<path d="M27.6576 69.485C11.13 69.2919 6.96191 55.5318 6.96191 55.5318C6.96191 55.5318 15.8523 52.0669 27.6576 52.0669C39.8315 52.0669 49.477 56.2809 49.477 56.2809C49.477 56.2809 43.7316 69.6727 27.6576 69.485Z" fill="#FFC318"/>
<path d="M92.4035 33.2031C92.2742 32.7538 92.0927 32.3568 91.8588 32.0121C91.6249 31.6612 91.3386 31.3658 91.0001 31.1257C90.6677 30.8795 90.2861 30.6918 89.8552 30.5625C89.4305 30.4332 88.9596 30.3686 88.4426 30.3686C87.4762 30.3686 86.6267 30.6087 85.8943 31.0888C85.1679 31.5689 84.6017 32.2675 84.1954 33.1847C83.7892 34.0956 83.586 35.2098 83.586 36.527C83.586 37.8442 83.7861 38.9645 84.1862 39.8878C84.5863 40.8111 85.1526 41.5159 85.885 42.0021C86.6175 42.4822 87.4823 42.7223 88.4795 42.7223C89.3843 42.7223 90.1568 42.5623 90.797 42.2422C91.4433 41.916 91.9357 41.4574 92.2742 40.8665C92.6189 40.2756 92.7913 39.5769 92.7913 38.7706L93.6038 38.8906H88.7288V35.8807H96.6414V38.2628C96.6414 39.9247 96.2906 41.3527 95.5889 42.5469C94.8872 43.7348 93.9208 44.652 92.6897 45.2983C91.4587 45.9384 90.0491 46.2585 88.461 46.2585C86.6883 46.2585 85.131 45.8677 83.7892 45.0859C82.4473 44.2981 81.4009 43.1809 80.6499 41.7344C79.9052 40.2817 79.5328 38.5582 79.5328 36.5639C79.5328 35.0312 79.7544 33.6648 80.1975 32.4645C80.6469 31.258 81.2747 30.2363 82.0811 29.3991C82.8874 28.562 83.8261 27.925 84.8971 27.4879C85.9681 27.0509 87.1284 26.8324 88.3779 26.8324C89.449 26.8324 90.4461 26.9893 91.3694 27.3033C92.2927 27.611 93.1114 28.0481 93.8254 28.6143C94.5455 29.1806 95.1334 29.8546 95.5889 30.6364C96.0444 31.4119 96.3367 32.2675 96.466 33.2031H92.4035ZM100.164 46V27.0909H104.162V42.7038H112.269V46H100.164ZM132.076 36.5455C132.076 38.6075 131.686 40.3617 130.904 41.8082C130.128 43.2547 129.07 44.3596 127.728 45.1229C126.392 45.88 124.89 46.2585 123.222 46.2585C121.542 46.2585 120.034 45.8769 118.698 45.1136C117.362 44.3504 116.307 43.2455 115.531 41.799C114.755 40.3525 114.368 38.6013 114.368 36.5455C114.368 34.4834 114.755 32.7292 115.531 31.2827C116.307 29.8362 117.362 28.7344 118.698 27.9773C120.034 27.214 121.542 26.8324 123.222 26.8324C124.89 26.8324 126.392 27.214 127.728 27.9773C129.07 28.7344 130.128 29.8362 130.904 31.2827C131.686 32.7292 132.076 34.4834 132.076 36.5455ZM128.023 36.5455C128.023 35.2098 127.823 34.0833 127.423 33.1662C127.029 32.2491 126.472 31.5535 125.752 31.0795C125.032 30.6056 124.188 30.3686 123.222 30.3686C122.256 30.3686 121.412 30.6056 120.692 31.0795C119.972 31.5535 119.412 32.2491 119.012 33.1662C118.618 34.0833 118.421 35.2098 118.421 36.5455C118.421 37.8812 118.618 39.0076 119.012 39.9247C119.412 40.8419 119.972 41.5374 120.692 42.0114C121.412 42.4853 122.256 42.7223 123.222 42.7223C124.188 42.7223 125.032 42.4853 125.752 42.0114C126.472 41.5374 127.029 40.8419 127.423 39.9247C127.823 39.0076 128.023 37.8812 128.023 36.5455ZM135.558 46V27.0909H143.129C144.52 27.0909 145.68 27.2971 146.61 27.7095C147.539 28.1219 148.238 28.6944 148.706 29.4268C149.173 30.1532 149.407 30.9903 149.407 31.9382C149.407 32.6768 149.26 33.3262 148.964 33.8864C148.669 34.4403 148.263 34.8958 147.745 35.2528C147.235 35.6037 146.65 35.853 145.991 36.0007V36.1854C146.711 36.2161 147.385 36.4193 148.013 36.7947C148.647 37.1702 149.161 37.6965 149.555 38.3736C149.949 39.0445 150.146 39.8447 150.146 40.7741C150.146 41.7775 149.897 42.6731 149.398 43.4609C148.906 44.2427 148.176 44.8613 147.21 45.3168C146.244 45.7723 145.053 46 143.637 46H135.558ZM139.556 42.7315H142.815C143.929 42.7315 144.742 42.5192 145.253 42.0945C145.763 41.6636 146.019 41.0911 146.019 40.3771C146.019 39.8539 145.893 39.3923 145.64 38.9922C145.388 38.5921 145.028 38.2782 144.56 38.0504C144.098 37.8227 143.548 37.7088 142.907 37.7088H139.556V42.7315ZM139.556 35.0036H142.52C143.067 35.0036 143.554 34.9081 143.978 34.7173C144.409 34.5204 144.748 34.2434 144.994 33.8864C145.246 33.5294 145.373 33.1016 145.373 32.603C145.373 31.9197 145.129 31.3688 144.643 30.9503C144.163 30.5317 143.48 30.3224 142.593 30.3224H139.556V35.0036ZM156.527 46H152.243L158.77 27.0909H163.922L170.441 46H166.157L161.42 31.4119H161.272L156.527 46ZM156.259 38.5675H166.378V41.6882H156.259V38.5675ZM173.237 46V27.0909H177.234V42.7038H185.341V46H173.237ZM211.73 33.7109H207.686C207.612 33.1877 207.461 32.723 207.234 32.3168C207.006 31.9044 206.714 31.5535 206.357 31.2642C206 30.9749 205.587 30.7533 205.119 30.5994C204.658 30.4455 204.156 30.3686 203.614 30.3686C202.636 30.3686 201.783 30.6117 201.057 31.098C200.33 31.5781 199.767 32.2798 199.367 33.2031C198.967 34.1203 198.767 35.2344 198.767 36.5455C198.767 37.8935 198.967 39.026 199.367 39.9432C199.773 40.8603 200.34 41.5528 201.066 42.0206C201.792 42.4884 202.633 42.7223 203.587 42.7223C204.122 42.7223 204.618 42.6515 205.073 42.5099C205.535 42.3684 205.944 42.1622 206.301 41.8913C206.658 41.6143 206.954 41.2789 207.187 40.8849C207.428 40.491 207.594 40.0417 207.686 39.5369L211.73 39.5554C211.625 40.4233 211.364 41.2604 210.945 42.0668C210.533 42.867 209.976 43.584 209.274 44.218C208.579 44.8459 207.748 45.3445 206.781 45.7138C205.821 46.0769 204.735 46.2585 203.522 46.2585C201.835 46.2585 200.327 45.8769 198.998 45.1136C197.674 44.3504 196.628 43.2455 195.859 41.799C195.095 40.3525 194.714 38.6013 194.714 36.5455C194.714 34.4834 195.102 32.7292 195.877 31.2827C196.653 29.8362 197.705 28.7344 199.035 27.9773C200.364 27.214 201.86 26.8324 203.522 26.8324C204.618 26.8324 205.633 26.9863 206.569 27.294C207.511 27.6018 208.345 28.0511 209.071 28.642C209.797 29.2268 210.388 29.9439 210.844 30.7933C211.305 31.6428 211.601 32.6153 211.73 33.7109ZM215.117 46V27.0909H222.577C224.005 27.0909 225.224 27.3464 226.233 27.8572C227.249 28.362 228.022 29.0791 228.551 30.0085C229.086 30.9318 229.354 32.0182 229.354 33.2678C229.354 34.5234 229.083 35.6037 228.542 36.5085C228 37.4072 227.215 38.0966 226.187 38.5767C225.165 39.0568 223.928 39.2969 222.476 39.2969H217.481V36.0838H221.829C222.593 36.0838 223.227 35.9792 223.731 35.7699C224.236 35.5606 224.612 35.2467 224.858 34.8281C225.11 34.4096 225.236 33.8894 225.236 33.2678C225.236 32.6399 225.11 32.1106 224.858 31.6797C224.612 31.2488 224.233 30.9226 223.722 30.701C223.217 30.4732 222.58 30.3594 221.811 30.3594H219.115V46H215.117ZM225.329 37.3949L230.028 46H225.615L221.017 37.3949H225.329ZM250.076 36.5455C250.076 38.6075 249.685 40.3617 248.903 41.8082C248.128 43.2547 247.069 44.3596 245.727 45.1229C244.391 45.88 242.89 46.2585 241.221 46.2585C239.541 46.2585 238.033 45.8769 236.697 45.1136C235.362 44.3504 234.306 43.2455 233.53 41.799C232.755 40.3525 232.367 38.6013 232.367 36.5455C232.367 34.4834 232.755 32.7292 233.53 31.2827C234.306 29.8362 235.362 28.7344 236.697 27.9773C238.033 27.214 239.541 26.8324 241.221 26.8324C242.89 26.8324 244.391 27.214 245.727 27.9773C247.069 28.7344 248.128 29.8362 248.903 31.2827C249.685 32.7292 250.076 34.4834 250.076 36.5455ZM246.023 36.5455C246.023 35.2098 245.823 34.0833 245.422 33.1662C245.029 32.2491 244.471 31.5535 243.751 31.0795C243.031 30.6056 242.188 30.3686 241.221 30.3686C240.255 30.3686 239.412 30.6056 238.692 31.0795C237.971 31.5535 237.411 32.2491 237.011 33.1662C236.617 34.0833 236.42 35.2098 236.42 36.5455C236.42 37.8812 236.617 39.0076 237.011 39.9247C237.411 40.8419 237.971 41.5374 238.692 42.0114C239.412 42.4853 240.255 42.7223 241.221 42.7223C242.188 42.7223 243.031 42.4853 243.751 42.0114C244.471 41.5374 245.029 40.8419 245.422 39.9247C245.823 39.0076 246.023 37.8812 246.023 36.5455ZM253.557 46V27.0909H261.018C262.452 27.0909 263.674 27.3648 264.683 27.9126C265.693 28.4543 266.462 29.2083 266.991 30.1747C267.527 31.1349 267.795 32.2429 267.795 33.4986C267.795 34.7543 267.524 35.8622 266.982 36.8224C266.44 37.7827 265.656 38.5305 264.628 39.0661C263.606 39.6016 262.369 39.8693 260.916 39.8693H256.161V36.6655H260.27C261.039 36.6655 261.673 36.5331 262.172 36.2685C262.676 35.9976 263.052 35.6252 263.298 35.1513C263.55 34.6712 263.677 34.1203 263.677 33.4986C263.677 32.8707 263.55 32.3229 263.298 31.8551C263.052 31.3812 262.676 31.0149 262.172 30.7564C261.667 30.4917 261.027 30.3594 260.251 30.3594H257.555V46H253.557Z" fill="white"/>
</svg>
