<svg width="492" height="635" viewBox="0 0 492 635" fill="none" xmlns="http://www.w3.org/2000/svg">
<path d="M201.083 391.343C198.878 413.393 209.206 446.79 209.206 446.79L241.349 445.987C241.349 445.987 230.714 412.96 230.903 391.343C231.099 369.001 233.776 355.462 242.957 335.093C252.945 312.929 263.099 301.747 282.332 286.878C303.913 270.193 346.618 259.556 346.618 259.556C346.618 259.556 304.924 279.61 283.939 299.735C270.25 312.864 253.403 337.503 253.403 337.503C253.403 337.503 281.397 339.163 299.207 337.503C323.541 335.236 337.49 332.67 360.279 323.843C385.072 314.239 394.046 298.624 418.941 289.289C436.473 282.714 465.548 278.039 465.548 278.039C465.548 278.039 424.566 199.288 330.547 216.163C294.387 222.653 273.493 237.86 253.403 270.003C233.914 301.185 218.849 357.593 218.849 357.593C218.849 357.593 214.975 316.525 221.26 289.289C223.671 278.842 231.493 241.459 253.403 222.592C282.332 197.681 323.619 177.105 346.618 131.787C370.119 85.4822 364.297 0 364.297 0C364.297 0 283.939 18.4823 239.742 61.0721C185.286 113.549 214.831 222.592 214.831 222.592C214.831 222.592 229.267 168.444 248.582 139.019C265.032 113.959 300.814 82.7687 300.814 82.7687C300.814 82.7687 266.484 133.277 248.582 167.948C228.768 206.321 205.992 270.003 205.992 270.003C205.992 270.003 196.895 181.883 160.992 143.841C125.582 106.321 39.651 91.6081 39.651 91.6081C39.651 91.6081 37.4836 131.823 42.8653 156.698C48.1396 181.076 66.1691 216.163 66.1691 216.163C66.1691 216.163 26.8042 259.807 15.5436 294.914C1.88277 337.504 -3.08494 363.258 1.88277 407.415C16.3472 535.988 112.479 629.816 241.349 634.828C385.994 640.453 484.834 507.059 489.656 407.415C490.783 384.125 492.066 370.45 489.656 347.146C487.715 328.391 474.388 301.342 474.388 301.342C474.388 301.342 463.007 300.052 455.905 301.342C448.279 302.728 437.423 308.575 437.423 308.575C437.423 308.575 447.631 331.491 450.28 347.146C453.16 364.164 453.336 375.67 452.438 392.906C451.617 408.654 451.604 417.144 446.262 431.522C432.594 468.313 388.938 596.256 241.349 596.256C186.531 596.256 71.7942 579.381 39.651 407.415C24.0396 323.894 88.6694 245.092 88.6694 245.092C88.6694 245.092 103.213 264.025 115.188 273.217C126.551 281.941 137.599 291.467 149.299 299.735C168.874 313.569 178.67 313.396 189.92 335.093C200.116 354.755 203.493 367.236 201.083 391.343Z" fill="#338600" fill-opacity="0.06"/>
<path d="M154.564 237.056C137.576 209.555 105.545 170.359 105.545 170.359C105.545 170.359 141.25 197.601 157.778 219.378C170.936 236.714 176.26 245.896 181.082 261.164C184.2 271.039 184.296 292.503 184.296 292.503C184.296 292.503 167.476 257.96 154.564 237.056Z" fill="white"/>
<path d="M237.335 596.256C95.5105 594.599 59.7439 476.523 59.7439 476.523C59.7439 476.523 136.033 446.791 237.335 446.791C341.8 446.791 424.569 482.952 424.569 482.952C424.569 482.952 375.268 597.868 237.335 596.256Z" fill="#FFC318" fill-opacity="0.05"/>
</svg>
