<svg width="38" height="48" viewBox="0 0 38 48" fill="none" xmlns="http://www.w3.org/2000/svg">
<path d="M15.1999 29.5819C15.0333 31.2486 15.814 33.7731 15.814 33.7731L18.2437 33.7124C18.2437 33.7124 17.4398 31.2158 17.4541 29.5819C17.4689 27.893 17.6713 26.8696 18.3652 25.3298C19.1203 23.6545 19.8878 22.8092 21.3416 21.6853C22.973 20.4241 26.2011 19.62 26.2011 19.62C26.2011 19.62 23.0493 21.1359 21.4631 22.6572C20.4284 23.6495 19.1549 25.5121 19.1549 25.5121C19.1549 25.5121 21.2709 25.6375 22.6172 25.5121C24.4567 25.3406 25.511 25.1467 27.2337 24.4794C29.1078 23.7535 29.7861 22.5732 31.6679 21.8675C32.9932 21.3705 35.191 21.0171 35.191 21.0171C35.191 21.0171 32.0932 15.0643 24.9862 16.3399C22.2528 16.8305 20.6735 17.9799 19.1549 20.4097C17.6817 22.7667 16.5429 27.0306 16.5429 27.0306C16.5429 27.0306 16.25 23.9263 16.7252 21.8675C16.9074 21.0778 17.4987 18.252 19.1549 16.8258C21.3416 14.9428 24.4625 13.3874 26.2011 9.96186C27.9775 6.46165 27.5374 0 27.5374 0C27.5374 0 21.4631 1.39709 18.1223 4.61647C14.0058 8.5832 16.2392 16.8258 16.2392 16.8258C16.2392 16.8258 17.3304 12.7328 18.7904 10.5085C20.0339 8.61419 22.7387 6.25653 22.7387 6.25653C22.7387 6.25653 20.1437 10.0744 18.7904 12.6953C17.2927 15.5959 15.571 20.4097 15.571 20.4097C15.571 20.4097 14.8834 13.7487 12.1694 10.873C9.49279 8.03689 2.99724 6.9247 2.99724 6.9247C2.99724 6.9247 2.83341 9.9646 3.24021 11.8449C3.6389 13.6876 5.00176 16.3399 5.00176 16.3399C5.00176 16.3399 2.02615 19.639 1.17495 22.2927C0.14232 25.5121 -0.233192 27.4588 0.14232 30.7967C1.23569 40.5156 8.50232 47.6082 18.2437 47.987C29.1775 48.4122 36.6489 38.3288 37.0133 30.7967C37.0985 29.0362 37.1956 28.0025 37.0133 26.241C36.8667 24.8233 35.8592 22.7786 35.8592 22.7786C35.8592 22.7786 34.9989 22.6811 34.4621 22.7786C33.8857 22.8834 33.065 23.3253 33.065 23.3253C33.065 23.3253 33.8367 25.0576 34.0369 26.241C34.2546 27.5274 34.2679 28.3971 34.2 29.7C34.1379 30.8904 34.137 31.5321 33.7332 32.619C32.7 35.4 29.4 45.0713 18.2437 45.0713C14.1 45.0713 5.42696 43.7957 2.99724 30.7967C1.81717 24.4833 6.70257 18.5266 6.70257 18.5266C6.70257 18.5266 7.80193 19.9578 8.70709 20.6526C9.56608 21.312 10.4012 22.0322 11.2856 22.6572C12.7653 23.7028 13.5058 23.6898 14.3562 25.3298C15.1268 26.8161 15.3822 27.7596 15.1999 29.5819Z" fill="white"/>
<path d="M11.6835 17.9192C10.3994 15.8404 7.97815 12.8775 7.97815 12.8775C7.97815 12.8775 10.6771 14.9368 11.9264 16.5829C12.9211 17.8933 13.3235 18.5874 13.688 19.7415C13.9237 20.488 13.931 22.1105 13.931 22.1105C13.931 22.1105 12.6595 19.4993 11.6835 17.9192Z" fill="#338600"/>
<path d="M17.9403 45.0713C7.21973 44.9461 4.51611 36.0206 4.51611 36.0206C4.51611 36.0206 10.2828 33.7731 17.9403 33.7731C25.8369 33.7731 32.0934 36.5065 32.0934 36.5065C32.0934 36.5065 28.3667 45.1931 17.9403 45.0713Z" fill="#FFC318"/>
</svg>
