<svg width="38" height="38" viewBox="0 0 38 38" fill="none" xmlns="http://www.w3.org/2000/svg">
<path d="M19 0C29.4934 0 38 8.50659 38 19C38 29.4934 29.4934 38 19 38C8.50659 38 0 29.4934 0 19C0 8.50659 8.50659 0 19 0ZM18.999 8.86621C16.2487 8.86622 15.9029 8.87856 14.8223 8.92773C13.7438 8.97715 13.0075 9.14792 12.3633 9.39844C11.6968 9.65725 11.1316 10.004 10.5684 10.5674C10.0047 11.1306 9.65811 11.696 9.39844 12.3623C9.14728 13.0067 8.9763 13.7432 8.92773 14.8213C8.87939 15.9022 8.86621 16.248 8.86621 19C8.86621 21.7521 8.87876 22.0968 8.92773 23.1777C8.97736 24.2562 9.14813 24.9925 9.39844 25.6367C9.65745 26.3031 10.004 26.8684 10.5674 27.4316C11.1304 27.9953 11.6962 28.3427 12.3623 28.6016C13.0069 28.852 13.7432 29.0228 14.8213 29.0723C15.9022 29.1215 16.2481 29.1338 19 29.1338C21.7516 29.1338 22.0962 29.1214 23.1768 29.0723C24.2554 29.0229 24.993 28.8521 25.6377 28.6016C26.304 28.3427 26.8686 27.9953 27.4316 27.4316C27.9953 26.8684 28.3419 26.3029 28.6016 25.6367C28.8506 24.9923 29.0216 24.2558 29.0723 23.1777C29.1208 22.0968 29.1338 21.7521 29.1338 19C29.1338 16.248 29.1208 15.9022 29.0723 14.8213C29.0216 13.7428 28.8506 13.0065 28.6016 12.3623C28.3419 11.6958 27.9953 11.1306 27.4316 10.5674C26.868 10.0038 26.3047 9.65704 25.6377 9.39844C24.9917 9.14785 24.2545 8.97714 23.1758 8.92773C22.095 8.87855 21.7508 8.86621 18.999 8.86621Z" fill="white"/>
<path d="M18.092 10.6934C18.3618 10.6929 18.6631 10.6934 19.0012 10.6934C21.7066 10.6934 22.0275 10.7024 23.0959 10.751C24.0837 10.7962 24.6196 10.9619 24.9768 11.1006C25.4497 11.2843 25.7874 11.5037 26.1418 11.8584C26.4963 12.2129 26.7156 12.5507 26.8997 13.0234C27.0384 13.3802 27.2043 13.9164 27.2493 14.9043C27.2978 15.9725 27.3079 16.2937 27.3079 18.998C27.3079 21.7023 27.2978 22.0236 27.2493 23.0918C27.2041 24.0796 27.0383 24.6159 26.8997 24.9727C26.716 25.4454 26.4964 25.7823 26.1418 26.1367C25.7872 26.4914 25.4499 26.7109 24.9768 26.8945C24.6201 27.0338 24.0835 27.198 23.0959 27.2432C22.0278 27.2917 21.7066 27.3027 19.0012 27.3027C16.2956 27.3027 15.9745 27.2917 14.9065 27.2432C13.9187 27.1976 13.3821 27.0332 13.0247 26.8945C12.552 26.7109 12.2141 26.4911 11.8596 26.1367C11.505 25.7821 11.2849 25.4448 11.1008 24.9717C10.9621 24.6149 10.7972 24.0787 10.7522 23.0908C10.7036 22.0226 10.6936 21.7012 10.6936 18.9951C10.6936 16.2897 10.7037 15.9702 10.7522 14.9023C10.7974 13.9144 10.9621 13.3777 11.1008 13.0205C11.2845 12.5476 11.5049 12.2101 11.8596 11.8555C12.2143 11.5008 12.5518 11.2808 13.0247 11.0967C13.3819 10.9574 13.9187 10.7925 14.9065 10.7471C15.841 10.7049 16.2037 10.6925 18.092 10.6904V10.6934ZM19.0002 13.7959C16.1268 13.7963 13.7973 16.1265 13.7971 19C13.7971 21.8739 16.1273 24.2031 19.0012 24.2031C21.875 24.203 24.2043 21.8738 24.2043 19C24.2042 16.1262 21.874 13.7959 19.0002 13.7959ZM24.4104 12.375C23.7392 12.375 23.1938 12.9194 23.1936 13.5908C23.1936 14.2622 23.7391 14.8076 24.4104 14.8076C25.0816 14.8074 25.6262 14.262 25.6262 13.5908C25.6261 12.9197 25.0815 12.3752 24.4104 12.375Z" fill="white"/>
<path d="M19.001 15.6221C20.8664 15.6221 22.3788 17.1343 22.3788 18.9999C22.3788 20.8653 20.8664 22.3777 19.001 22.3777C17.1354 22.3777 15.6232 20.8653 15.6232 18.9999C15.6232 17.1343 17.1354 15.6221 19.001 15.6221Z" fill="white"/>
</svg>
