<svg width="32" height="32" viewBox="0 0 32 32" fill="none" xmlns="http://www.w3.org/2000/svg">
<path opacity="0.6" d="M20.0001 2.66666H18.6667C14.8955 2.66666 13.0099 2.66666 11.8383 3.83823C10.6667 5.0098 10.6667 6.89542 10.6667 10.6667V21.3333C10.6667 25.1046 10.6667 26.9902 11.8383 28.1618C13.0099 29.3333 14.8955 29.3333 18.6667 29.3333H20.0001C23.7713 29.3333 25.6569 29.3333 26.8285 28.1618C28.0001 26.9902 28.0001 25.1046 28.0001 21.3333V10.6667C28.0001 6.89542 28.0001 5.0098 26.8285 3.83823C25.6569 2.66666 23.7713 2.66666 20.0001 2.66666Z" fill="white"/>
<path opacity="0.4" d="M10.6667 10.6667C10.6667 8.61666 10.6667 7.12383 10.8549 6H10.6667C7.52397 6 5.95262 6 4.97631 6.97631C4 7.95262 4 9.52397 4 12.6667V19.3333C4 22.476 4 24.0474 4.97631 25.0237C5.95262 26 7.52397 26 10.6667 26H10.8549C10.6667 24.8762 10.6667 23.3833 10.6667 21.3333V17V15V10.6667Z" fill="white"/>
<path fill-rule="evenodd" clip-rule="evenodd" d="M19.3739 15.2929C19.7644 15.6834 19.7644 16.3166 19.3739 16.7071L16.7072 19.3738C16.3167 19.7643 15.6835 19.7643 15.293 19.3738C14.9025 18.9833 14.9025 18.3501 15.293 17.9596L16.2525 17L6.66675 17C6.11446 17 5.66675 16.5523 5.66675 16C5.66675 15.4477 6.11446 15 6.66675 15L16.2525 15L15.293 14.0405C14.9025 13.6499 14.9025 13.0168 15.293 12.6262C15.6835 12.2357 16.3167 12.2357 16.7072 12.6262L19.3739 15.2929Z" fill="white"/>
</svg>
