<svg width="800" height="1609" viewBox="0 0 800 1609" fill="none" xmlns="http://www.w3.org/2000/svg">
<path opacity="0.0144928" d="M187.352 1353.78C196.039 1359.83 207.679 1359.4 215.895 1352.72L400.533 1202.74C405.392 1198.79 408.495 1193.08 409.17 1186.86L446.487 842.569C447.017 837.675 446.014 832.737 443.616 828.438L296.716 565.146C292.367 557.352 284.014 552.653 275.095 552.984L69.088 560.622C60.1684 560.953 52.187 566.257 48.4273 574.352L-78.5696 847.799C-80.6431 852.263 -81.2788 857.262 -80.3874 862.104L-17.6755 1202.69C-16.542 1208.84 -13.0244 1214.3 -7.8871 1217.88L187.352 1353.78Z" stroke="#338600" stroke-width="2.5"/>
<path opacity="0.0289855" d="M149.402 1347.87C157.749 1354.33 169.36 1354.51 177.901 1348.31L368.947 1209.52C374.018 1205.84 377.428 1200.3 378.432 1194.11L433.362 855.46C434.152 850.586 433.404 845.587 431.222 841.158L299.106 573.093C295.166 565.097 287.08 559.981 278.167 559.844L73.3023 556.71C64.3892 556.573 56.1499 561.44 51.9664 569.311L-88.286 833.209C-90.6032 837.569 -91.5044 842.543 -90.8633 847.439L-46.3184 1187.61C-45.5044 1193.83 -42.266 1199.47 -37.3094 1203.31L149.402 1347.87Z" stroke="#338600" stroke-width="2.5"/>
<path opacity="0.0434783" d="M111.897 1340.84C119.883 1347.7 131.433 1348.49 140.272 1342.77L337.063 1215.44C342.334 1212.03 346.04 1206.67 347.371 1200.54L419.426 868.422C420.476 863.582 419.987 858.535 418.027 853.987L300.793 581.966C297.27 573.79 289.47 568.271 280.588 567.669L77.4247 553.903C68.5427 553.301 60.0692 557.717 55.4752 565.342L-97.3829 819.061C-99.9386 823.303 -101.104 828.238 -100.717 833.176L-74.1232 1171.97C-73.6319 1178.23 -70.6823 1184.04 -65.9196 1188.13L111.897 1340.84Z" stroke="#338600" stroke-width="2.5"/>
<path opacity="0.057971" d="M74.8934 1332.74C82.5012 1339.97 93.9574 1341.35 103.067 1336.13L304.932 1220.48C310.387 1217.36 314.382 1212.2 316.038 1206.13L404.685 881.408C405.993 876.616 405.766 871.533 404.034 866.876L301.733 591.717C298.634 583.383 291.141 577.478 282.315 576.413L81.3994 552.183C72.5729 551.119 63.8907 555.074 58.9002 562.431L-105.885 805.381C-108.674 809.492 -110.103 814.375 -109.972 819.341L-101.063 1155.83C-100.897 1162.11 -98.245 1168.08 -93.6888 1172.41L74.8934 1332.74Z" stroke="#338600" stroke-width="2.5"/>
<path opacity="0.0724638" d="M38.4457 1323.59C45.657 1331.18 56.9883 1333.15 66.3405 1328.45L272.6 1224.65C278.225 1221.82 282.495 1216.87 284.473 1210.89L389.139 894.377C390.703 889.645 390.74 884.541 389.243 879.787L301.878 602.297C299.212 593.829 292.045 587.554 283.298 586.032L85.1652 551.535C76.4184 550.012 67.5525 553.496 62.1811 560.565L-113.825 792.2C-116.84 796.168 -118.53 800.984 -118.657 805.966L-127.12 1139.23C-127.28 1145.52 -124.933 1151.62 -120.596 1156.19L38.4457 1323.59Z" stroke="#338600" stroke-width="2.5"/>
<path opacity="0.0869565" d="M2.60335 1313.44C9.40163 1321.36 20.5774 1323.92 30.1429 1319.74L240.113 1227.93C245.891 1225.4 250.427 1220.68 252.721 1214.81L372.791 907.282C374.61 902.625 374.912 897.513 373.656 892.674L301.191 613.657C298.962 605.076 292.139 598.45 283.496 596.474L88.6657 551.936C80.0226 549.96 70.9983 552.963 65.2625 559.724L-121.235 779.542C-124.47 783.354 -126.419 788.09 -126.804 793.075L-152.277 1122.22C-152.764 1128.51 -150.73 1134.74 -146.623 1139.52L2.60335 1313.44Z" stroke="#338600" stroke-width="2.5"/>
<path opacity="0.101449" d="M-32.5825 1302.33C-26.2124 1310.57 -15.2226 1313.69 -5.47307 1310.04L207.523 1230.33C213.438 1228.11 218.229 1223.64 220.834 1217.88L355.656 920.082C357.725 915.513 358.294 910.406 357.281 905.494L299.638 625.74C297.851 617.069 291.39 610.111 282.874 607.689L91.8493 553.359C83.3335 550.937 74.1768 553.453 68.0941 559.886L-128.144 767.432C-131.589 771.076 -133.793 775.718 -134.439 780.692L-176.516 1104.87C-177.329 1111.13 -175.612 1117.46 -171.747 1122.46L-32.5825 1302.33Z" stroke="#338600" stroke-width="2.5"/>
<path opacity="0.115942" d="M-67.0638 1290.31C-61.1359 1298.83 -50.3621 1302.52 -40.4588 1299.41L174.878 1231.85C180.914 1229.96 185.945 1225.73 188.855 1220.12L337.744 932.735C340.059 928.267 340.894 923.179 340.131 918.206L297.187 638.495C295.845 629.757 289.761 622.488 281.396 619.627L94.6638 555.78C86.2986 552.92 77.0367 554.942 70.6258 561.03L-134.583 755.892C-138.232 759.357 -140.686 763.892 -141.591 768.841L-199.823 1087.22C-200.962 1093.44 -199.57 1099.86 -195.957 1105.06L-67.0638 1290.31Z" stroke="#338600" stroke-width="2.5"/>
<path opacity="0.130435" d="M-100.798 1277.43C-95.3254 1286.21 -84.7956 1290.44 -74.7686 1287.88L142.224 1232.5C148.364 1230.93 153.622 1226.97 156.831 1221.51L319.067 945.198C321.624 940.845 322.726 935.789 322.214 930.766L293.808 651.863C292.913 643.081 287.222 635.52 279.03 632.23L97.0598 559.165C88.8678 555.876 79.5266 557.402 72.807 563.127L-140.587 744.942C-144.43 748.216 -147.13 752.63 -148.294 757.543L-222.191 1069.33C-223.653 1075.49 -222.589 1081.99 -219.238 1087.36L-100.798 1277.43Z" stroke="#338600" stroke-width="2.5"/>
<path opacity="0.144928" d="M-133.746 1263.73C-128.739 1272.75 -118.481 1277.51 -108.36 1275.5L109.609 1232.28C115.835 1231.05 121.307 1227.37 124.805 1222.08L299.643 957.433C302.436 953.206 303.803 948.197 303.546 943.138L289.476 665.791C289.03 656.988 283.745 649.156 275.749 645.448L98.9884 563.487C90.9917 559.779 81.5988 560.805 74.5911 566.151L-146.189 734.602C-150.217 737.675 -153.156 741.955 -154.578 746.817L-243.612 1051.25C-245.394 1057.34 -244.663 1063.89 -241.583 1069.44L-133.746 1263.73Z" stroke="#338600" stroke-width="2.5"/>
<path opacity="0.173913" d="M-197.141 1234.1C-193.095 1243.52 -183.46 1249.28 -173.246 1248.38L44.6663 1229.3C51.0093 1228.74 56.8636 1225.66 60.9152 1220.75L258.613 981.058C261.858 977.123 263.751 972.247 264.01 967.153L277.86 695.083C278.306 686.307 273.87 678.001 266.328 673.492L101.253 574.789C93.7114 570.279 84.2962 570.302 76.7767 574.849L-156.34 715.812C-160.705 718.452 -164.105 722.426 -166.035 727.148L-283.617 1014.74C-286.027 1020.64 -285.969 1027.25 -283.456 1033.1L-197.141 1234.1Z" stroke="#338600" stroke-width="2.5"/>
<path opacity="0.188406" d="M-227.522 1218.26C-223.969 1227.85 -214.682 1234.08 -204.467 1233.74L12.4273 1226.55C18.8018 1226.34 24.8236 1223.57 29.1367 1218.87L237.051 992.371C240.513 988.6 242.663 983.811 243.182 978.719L270.541 710.327C271.431 701.598 267.436 693.09 260.152 688.2L101.508 581.689C94.224 576.799 84.8367 576.323 77.0949 580.451L-160.96 707.387C-165.476 709.796 -169.095 713.599 -171.274 718.23L-302.202 996.421C-304.918 1002.19 -305.199 1008.81 -302.982 1014.79L-227.522 1218.26Z" stroke="#338600" stroke-width="2.5"/>
<path opacity="0.202899" d="M-256.985 1201.83C-253.929 1211.55 -245.015 1218.24 -234.83 1218.45L-19.5938 1223C-13.2065 1223.13 -7.03439 1220.69 -2.4711 1216.22L214.825 1003.3C218.494 999.708 220.899 995.021 221.678 989.943L262.204 725.891C263.533 717.233 259.989 708.546 252.982 703.29L101.129 589.373C94.1223 584.116 84.7907 583.144 76.8502 586.842L-165.319 699.625C-169.976 701.794 -173.804 705.414 -176.229 709.942L-319.846 978.129C-322.862 983.761 -323.481 990.371 -321.565 996.465L-256.985 1201.83Z" stroke="#338600" stroke-width="2.5"/>
<path opacity="0.217391" d="M-285.51 1184.86C-282.956 1194.69 -274.437 1201.81 -264.312 1202.57L-51.3627 1218.65C-44.9813 1219.14 -38.6753 1217.02 -33.8735 1212.79L191.957 1013.83C195.826 1010.42 198.48 1005.84 199.519 1000.79L252.836 741.716C254.598 733.15 251.511 724.309 244.8 718.703L100.076 597.796C93.3645 592.189 84.115 590.723 75.9998 593.981L-169.461 692.534C-174.246 694.455 -178.274 697.881 -180.94 702.294L-336.56 959.917C-339.869 965.395 -340.828 971.976 -339.218 978.17L-285.51 1184.86Z" stroke="#338600" stroke-width="2.5"/>
<path opacity="0.231884" d="M-313.076 1167.4C-311.027 1177.31 -302.924 1184.84 -292.889 1186.14L-82.8394 1213.54C-76.4828 1214.37 -70.0612 1212.59 -65.0336 1208.62L168.473 1023.9C172.532 1020.69 175.431 1016.24 176.73 1011.23L242.429 757.739C244.619 749.288 241.995 740.317 235.598 734.377L98.3144 606.91C91.9166 600.97 82.7757 599.018 74.51 601.828L-173.421 686.119C-178.321 687.785 -182.542 691.006 -185.443 695.291L-352.361 941.835C-355.955 947.143 -357.249 953.679 -355.952 959.957L-313.076 1167.4Z" stroke="#338600" stroke-width="2.5"/>
<path opacity="0.246377" d="M-339.663 1149.51C-338.121 1159.48 -330.453 1167.38 -320.538 1169.23L-113.983 1207.68C-107.67 1208.85 -101.15 1207.42 -95.9101 1203.71L144.407 1033.5C148.646 1030.5 151.783 1026.19 153.338 1021.23L230.987 773.901C233.598 765.586 231.444 756.509 225.377 750.253L95.8201 616.671C89.7524 610.415 80.7451 607.984 72.3539 610.339L-177.235 680.385C-182.236 681.788 -186.639 684.793 -189.769 688.938L-367.256 923.934C-371.126 929.058 -372.756 935.531 -371.775 941.877L-339.663 1149.51Z" stroke="#338600" stroke-width="2.5"/>
<path opacity="0.26087" d="M-365.262 1131.26C-364.227 1141.25 -357.012 1149.52 -347.246 1151.89L-144.761 1201.1C-138.51 1202.62 -131.91 1201.54 -126.471 1198.1L119.782 1042.59C124.191 1039.81 127.561 1035.65 129.373 1030.76L218.509 790.146C221.531 781.988 219.85 772.83 214.128 766.276L92.5601 627.035C86.8381 620.481 77.9904 617.581 69.4989 619.475L-180.942 675.336C-186.031 676.471 -190.605 679.249 -193.958 683.242L-381.267 906.265C-385.404 911.191 -387.367 917.585 -386.705 923.983L-365.262 1131.26Z" stroke="#338600" stroke-width="2.5"/>
<path opacity="0.275362" d="M-389.857 1112.69C-389.329 1122.69 -382.584 1131.28 -372.996 1134.17L-175.134 1193.82C-168.964 1195.68 -162.303 1194.96 -156.68 1191.81L94.6369 1051.15C99.2042 1048.6 102.799 1044.6 104.863 1039.79L205.002 806.41C208.426 798.429 207.221 789.215 201.859 782.383L88.5136 637.95C83.152 631.118 74.4887 627.757 65.9223 629.186L-184.576 670.97C-189.739 671.831 -194.473 674.373 -198.042 678.201L-394.413 888.873C-398.806 893.587 -401.096 899.884 -400.757 906.32L-389.857 1112.69Z" stroke="#338600" stroke-width="2.5"/>
<path opacity="0.289855" d="M-413.444 1093.87C-413.419 1103.85 -407.159 1112.75 -397.776 1116.14L-205.071 1185.88C-199 1188.08 -192.298 1187.71 -186.505 1184.86L69.002 1059.16C73.7169 1056.84 77.5296 1053.02 79.8427 1048.3L190.476 822.636C194.292 814.853 193.564 805.608 188.576 798.517L83.6602 649.367C78.6726 642.277 70.2175 638.467 61.602 639.428L-188.175 667.283C-193.397 667.866 -198.279 670.164 -202.055 673.817L-406.715 871.805C-411.355 876.294 -413.968 882.478 -413.952 888.933L-413.444 1093.87Z" stroke="#338600" stroke-width="2.5"/>
<path opacity="0.304348" d="M-436.023 1074.86C-436.498 1084.79 -430.737 1093.97 -421.586 1097.85L-234.544 1177.31C-228.592 1179.83 -221.865 1179.83 -215.919 1177.28L42.9075 1066.58C47.7582 1064.51 51.7799 1060.88 54.3383 1056.26L174.938 838.769C179.134 831.202 178.882 821.951 174.281 814.623L77.9755 661.24C73.3744 653.911 65.152 649.665 56.5131 650.156L-191.777 664.278C-197.045 664.578 -202.062 666.622 -206.038 670.09L-418.203 855.109C-423.077 859.359 -426.008 865.413 -426.317 871.873L-436.023 1074.86Z" stroke="#338600" stroke-width="2.5"/>
<path opacity="0.318841" d="M-457.591 1055.71C-458.56 1065.57 -453.31 1075 -444.418 1079.36L-263.524 1168.13C-257.707 1170.98 -250.977 1171.33 -244.893 1169.11L16.3908 1073.41C21.3647 1071.58 25.5869 1068.15 28.3859 1063.65L158.405 854.752C162.968 847.42 163.191 838.189 158.988 830.644L71.4464 673.514C67.2431 665.97 59.2757 661.302 50.6393 661.323L-195.419 661.945C-200.716 661.958 -205.857 663.742 -210.023 667.012L-428.904 838.823C-434 842.824 -437.241 848.734 -437.875 855.182L-457.591 1055.71Z" stroke="#338600" stroke-width="2.5"/>
<path opacity="0.333333" d="M-478.151 1036.49C-479.608 1046.25 -474.879 1055.9 -466.27 1060.72L-291.979 1158.38C-286.316 1161.55 -279.601 1162.27 -273.396 1160.36L-10.509 1079.61C-5.42447 1078.05 -1.01169 1074.82 2.02282 1070.46L140.898 870.531C145.815 863.452 146.511 854.264 142.716 846.524L64.0635 686.141C60.2681 678.402 52.5773 673.328 43.9693 672.881L-199.131 660.277C-204.443 660.001 -209.693 661.517 -214.041 664.581L-438.842 822.993C-444.148 826.732 -447.693 832.48 -448.652 838.9L-478.151 1036.49Z" stroke="#338600" stroke-width="2.5"/>
<path opacity="0.347826" d="M-497.711 1017.26C-499.648 1026.89 -495.448 1036.73 -487.149 1041.99L-319.889 1148.09C-314.397 1151.57 -307.717 1152.65 -301.408 1151.07L-37.7588 1085.18C-32.5769 1083.88 -27.9825 1080.88 -24.7183 1076.65L122.435 886.05C127.692 879.241 128.856 870.121 125.478 862.209L55.8133 699.069C52.4348 691.158 45.0422 685.692 36.488 684.78L-202.951 659.264C-208.262 658.698 -213.61 659.938 -218.129 662.785L-448.056 807.655C-453.558 811.121 -457.398 816.692 -458.679 823.068L-497.711 1017.26Z" stroke="#338600" stroke-width="2.5"/>
<path opacity="0.362319" d="M-516.278 998.053C-518.686 1007.54 -515.024 1017.54 -507.055 1023.22L-347.228 1137.3C-341.924 1141.08 -335.299 1142.52 -328.903 1141.28L-65.3186 1090.09C-60.053 1089.07 -55.288 1086.29 -51.8005 1082.22L103.042 901.259C108.624 894.736 110.25 885.709 107.297 877.648L46.6918 712.247C43.7381 704.186 36.6642 698.347 28.1896 696.974L-206.912 658.895C-212.207 658.037 -217.637 658.998 -222.316 661.62L-456.574 792.845C-462.258 796.03 -466.385 801.409 -467.988 807.724L-516.278 998.053Z" stroke="#338600" stroke-width="2.5"/>
<path opacity="0.376812" d="M-533.869 978.945C-536.737 988.265 -533.618 998.391 -526.002 1004.48L-373.977 1126.04C-368.879 1130.12 -362.326 1131.92 -355.861 1131.01L-93.1515 1094.34C-87.8161 1093.6 -82.8925 1091.06 -79.1887 1087.15L82.7442 916.111C88.6345 909.89 90.718 900.978 88.1954 892.79L36.694 725.627C34.1714 717.439 27.4338 711.245 19.0635 709.417L-211.048 659.161C-216.311 658.012 -221.809 658.686 -226.638 661.073L-464.436 778.602C-470.288 781.494 -474.692 786.668 -476.613 792.907L-533.869 978.945Z" stroke="#338600" stroke-width="2.5"/>
<path opacity="0.391304" d="M-550.431 960.114C-553.748 969.241 -551.175 979.468 -543.933 985.938L-400.051 1114.49C-395.174 1118.84 -388.715 1121 -382.199 1120.44L-121.153 1098.05C-115.762 1097.59 -110.689 1095.3 -106.776 1091.56L61.6394 930.686C67.8215 924.781 70.3523 916.008 68.2661 907.717L25.8853 739.285C23.7992 730.994 17.4177 724.464 9.17688 722.187L-215.322 660.174C-220.538 658.733 -226.09 659.117 -231.058 661.261L-471.612 765.086C-477.617 767.678 -482.287 772.632 -484.522 778.779L-550.431 960.114Z" stroke="#338600" stroke-width="2.5"/>
<path opacity="0.405797" d="M-566.181 941.219C-569.935 950.131 -567.91 960.429 -561.062 967.257L-425.632 1102.28C-420.991 1106.9 -414.645 1109.41 -408.095 1109.19L-149.48 1100.82C-144.048 1100.64 -138.84 1098.61 -134.726 1095.05L39.5589 944.545C46.0154 938.969 48.9855 930.359 47.3396 921.988L14.07 752.78C12.4241 744.409 6.4153 737.563 -1.67176 734.847L-219.966 661.526C-225.119 659.795 -230.709 659.885 -235.804 661.778L-478.339 751.934C-484.481 754.218 -489.408 758.938 -491.951 764.977L-566.181 941.219Z" stroke="#338600" stroke-width="2.5"/>
<path opacity="0.42029" d="M-580.942 922.705C-585.119 931.382 -583.643 941.721 -577.206 948.882L-450.506 1089.84C-446.117 1094.73 -439.901 1097.57 -433.336 1097.71L-177.896 1103.02C-172.437 1103.14 -167.106 1101.37 -162.8 1098.01L16.7384 958.04C23.4514 952.807 26.8509 944.381 25.6482 935.954L1.45394 766.455C0.251082 758.028 -5.37007 750.89 -13.2794 747.744L-224.809 663.593C-229.882 661.575 -235.496 661.367 -240.705 663.004L-484.457 739.57C-490.722 741.538 -495.892 746.011 -498.74 751.928L-580.942 922.705Z" stroke="#338600" stroke-width="2.5"/>
<path opacity="0.5" d="M-594.809 904.491C-599.393 912.911 -598.465 923.262 -592.456 930.732L-474.732 1077.09C-470.608 1082.22 -464.543 1085.4 -457.982 1085.89L-206.432 1104.54C-200.962 1104.95 -195.52 1103.44 -191.03 1100.29L-6.85766 970.997C0.0933447 966.117 3.91001 957.897 3.15156 949.438L-12.0287 780.132C-12.7872 771.673 -18.0053 764.263 -25.7135 760.697L-229.95 666.226C-234.928 663.923 -240.55 663.415 -245.861 664.787L-490.081 727.884C-496.451 729.53 -501.853 733.745 -504.999 739.524L-594.809 904.491Z" stroke="#338600" stroke-width="2.5"/>
</svg>
