<svg width="774" height="1609" viewBox="0 0 774 1609" fill="none" xmlns="http://www.w3.org/2000/svg">
<path opacity="0.0144928" d="M612.569 255.136C603.881 249.089 592.241 249.521 584.026 256.194L399.387 406.181C394.529 410.128 391.425 415.833 390.751 422.056L353.434 766.349C352.903 771.243 353.907 776.181 356.305 780.48L503.205 1043.77C507.554 1051.57 515.906 1056.26 524.826 1055.93L730.833 1048.3C739.752 1047.97 747.734 1042.66 751.493 1034.57L878.49 761.119C880.564 756.654 881.199 751.655 880.308 746.814L817.596 406.23C816.463 400.074 812.945 394.614 807.808 391.038L612.569 255.136Z" stroke="#338600" stroke-width="2.5"/>
<path opacity="0.0289855" d="M650.518 261.048C642.172 254.585 630.561 254.407 622.02 260.612L430.974 399.396C425.902 403.08 422.493 408.62 421.489 414.808L366.559 753.457C365.769 758.331 366.517 763.33 368.699 767.759L500.814 1035.82C504.755 1043.82 512.841 1048.94 521.754 1049.07L726.619 1052.21C735.532 1052.34 743.771 1047.48 747.954 1039.61L888.207 775.708C890.524 771.348 891.425 766.374 890.784 761.478L846.239 421.307C845.425 415.091 842.187 409.449 837.23 405.612L650.518 261.048Z" stroke="#338600" stroke-width="2.5"/>
<path opacity="0.0434783" d="M688.024 268.074C680.037 261.215 668.488 260.432 659.649 266.151L462.858 393.477C457.587 396.888 453.881 402.246 452.55 408.382L380.494 740.496C379.444 745.336 379.934 750.383 381.894 754.931L499.127 1026.95C502.651 1035.13 510.451 1040.65 519.333 1041.25L722.496 1055.02C731.378 1055.62 739.851 1051.2 744.445 1043.58L897.304 789.857C899.859 785.615 901.025 780.68 900.637 775.742L874.044 436.944C873.553 430.685 870.603 424.875 865.84 420.785L688.024 268.074Z" stroke="#338600" stroke-width="2.5"/>
<path opacity="0.057971" d="M725.027 276.18C717.42 268.945 705.963 267.564 696.854 272.783L494.989 388.434C489.533 391.56 485.539 396.721 483.883 402.787L395.236 727.509C393.927 732.302 394.155 737.385 395.886 742.041L498.188 1017.2C501.286 1025.53 508.78 1031.44 517.606 1032.5L718.521 1056.73C727.348 1057.8 736.03 1053.84 741.021 1046.49L905.806 803.537C908.595 799.425 910.024 794.542 909.893 789.576L900.984 453.089C900.818 446.803 898.166 440.841 893.61 436.508L725.027 276.18Z" stroke="#338600" stroke-width="2.5"/>
<path opacity="0.0724638" d="M761.476 285.329C754.264 277.738 742.933 275.765 733.581 280.472L527.322 384.27C521.697 387.101 517.426 392.05 515.449 398.028L410.783 714.541C409.218 719.272 409.181 724.377 410.678 729.13L498.043 1006.62C500.71 1015.09 507.877 1021.36 516.623 1022.89L714.756 1057.38C723.503 1058.91 732.369 1055.42 737.74 1048.35L913.746 816.718C916.761 812.75 918.452 807.933 918.578 802.951L927.041 469.689C927.201 463.394 924.854 457.293 920.517 452.728L761.476 285.329Z" stroke="#338600" stroke-width="2.5"/>
<path opacity="0.0869565" d="M797.318 295.477C790.52 287.554 779.344 284.999 769.778 289.182L559.809 380.988C554.03 383.515 549.494 388.236 547.2 394.111L427.13 701.636C425.312 706.293 425.009 711.405 426.266 716.244L498.73 995.261C500.959 1003.84 507.782 1010.47 516.425 1012.44L711.256 1056.98C719.899 1058.96 728.923 1055.95 734.659 1049.19L921.157 829.376C924.391 825.564 926.34 820.828 926.726 815.843L952.199 486.694C952.685 480.406 950.651 474.182 946.544 469.396L797.318 295.477Z" stroke="#338600" stroke-width="2.5"/>
<path opacity="0.101449" d="M832.504 306.585C826.134 298.352 815.144 295.226 805.394 298.875L592.399 378.589C586.483 380.804 581.692 385.283 579.087 391.037L444.265 688.836C442.196 693.405 441.628 698.512 442.64 703.424L500.284 983.178C502.07 991.849 508.532 998.807 517.047 1001.23L708.072 1055.56C716.588 1057.98 725.744 1055.47 731.827 1049.03L928.065 841.486C931.511 837.842 933.715 833.2 934.36 828.226L976.437 504.049C977.25 497.785 975.534 491.456 971.668 486.46L832.504 306.585Z" stroke="#338600" stroke-width="2.5"/>
<path opacity="0.115942" d="M866.985 318.603C861.057 310.083 850.283 306.399 840.38 309.506L625.044 377.067C619.007 378.961 613.976 383.186 611.066 388.803L462.177 676.183C459.863 680.651 459.027 685.739 459.791 690.712L502.735 970.423C504.076 979.161 510.16 986.43 518.525 989.29L705.257 1053.14C713.623 1056 722.885 1053.98 729.295 1047.89L934.505 853.026C938.154 849.561 940.607 845.026 941.513 840.076L999.745 521.7C1000.88 515.476 999.491 509.056 995.878 503.862L866.985 318.603Z" stroke="#338600" stroke-width="2.5"/>
<path opacity="0.130435" d="M900.72 331.489C895.247 322.706 884.717 318.478 874.69 321.037L657.697 376.42C651.557 377.987 646.299 381.943 643.09 387.407L480.854 663.72C478.298 668.073 477.195 673.129 477.707 678.152L506.113 957.055C507.008 965.837 512.699 973.398 520.891 976.688L702.861 1049.75C711.053 1053.04 720.395 1051.52 727.114 1045.79L940.508 863.976C944.351 860.702 947.051 856.288 948.215 851.375L1022.11 539.593C1023.57 533.427 1022.51 526.933 1019.16 521.555L900.72 331.489Z" stroke="#338600" stroke-width="2.5"/>
<path opacity="0.144928" d="M933.667 345.187C928.66 336.166 918.402 331.41 908.282 333.416L690.312 376.637C684.087 377.871 678.615 381.546 675.116 386.842L500.278 651.485C497.486 655.711 496.119 660.72 496.375 665.78L510.445 943.127C510.892 951.93 516.176 959.762 524.173 963.47L700.933 1045.43C708.93 1049.14 718.323 1048.11 725.33 1042.77L946.111 874.316C950.138 871.243 953.077 866.963 954.499 862.101L1043.53 557.672C1045.32 551.58 1044.58 545.029 1041.5 539.48L933.667 345.187Z" stroke="#338600" stroke-width="2.5"/>
<path opacity="0.173913" d="M997.062 374.822C993.016 365.401 983.381 359.64 973.167 360.534L755.255 379.622C748.912 380.178 743.058 383.258 739.006 388.17L541.309 627.86C538.063 631.795 536.17 636.671 535.911 641.765L522.062 913.835C521.615 922.611 526.051 930.917 533.593 935.426L698.668 1034.13C706.21 1038.64 715.625 1038.62 723.145 1034.07L956.261 893.106C960.626 890.466 964.026 886.492 965.956 881.77L1083.54 594.176C1085.95 588.282 1085.89 581.668 1083.38 575.817L997.062 374.822Z" stroke="#338600" stroke-width="2.5"/>
<path opacity="0.188406" d="M1027.44 390.653C1023.89 381.07 1014.6 374.836 1004.39 375.174L787.494 382.367C781.119 382.578 775.098 385.345 770.784 390.043L562.87 616.547C559.409 620.318 557.258 625.107 556.739 630.199L529.38 898.591C528.49 907.32 532.485 915.828 539.769 920.718L698.413 1027.23C705.697 1032.12 715.084 1032.59 722.826 1028.47L960.881 901.531C965.398 899.122 969.016 895.319 971.195 890.687L1102.12 612.497C1104.84 606.726 1105.12 600.105 1102.9 594.125L1027.44 390.653Z" stroke="#338600" stroke-width="2.5"/>
<path opacity="0.202899" d="M1056.91 407.084C1053.85 397.366 1044.94 390.679 1034.75 390.464L819.515 385.92C813.128 385.786 806.956 388.23 802.392 392.701L585.096 605.615C581.427 609.21 579.022 613.897 578.243 618.975L537.717 883.027C536.388 891.685 539.933 900.372 546.94 905.628L698.792 1019.55C705.799 1024.8 715.131 1025.77 723.071 1022.08L965.241 909.293C969.897 907.124 973.726 903.504 976.151 898.976L1119.77 630.789C1122.78 625.157 1123.4 618.547 1121.49 612.453L1056.91 407.084Z" stroke="#338600" stroke-width="2.5"/>
<path opacity="0.217391" d="M1085.43 424.057C1082.88 414.229 1074.36 407.112 1064.23 406.347L851.284 390.264C844.903 389.782 838.597 391.896 833.795 396.127L607.964 595.093C604.096 598.501 601.442 603.076 600.402 608.126L547.085 867.202C545.323 875.767 548.411 884.609 555.122 890.215L699.846 1011.12C706.557 1016.73 715.806 1018.19 723.922 1014.94L969.382 916.384C974.167 914.463 978.196 911.037 980.861 906.624L1136.48 649.001C1139.79 643.523 1140.75 636.942 1139.14 630.748L1085.43 424.057Z" stroke="#338600" stroke-width="2.5"/>
<path opacity="0.231884" d="M1113 441.517C1110.95 431.607 1102.85 424.083 1092.81 422.774L882.761 395.378C876.404 394.549 869.982 396.325 864.955 400.302L631.448 585.018C627.389 588.229 624.49 592.677 623.192 597.686L557.492 851.179C555.302 859.63 557.926 868.601 564.323 874.541L701.607 1002.01C708.005 1007.95 717.145 1009.9 725.411 1007.09L973.343 922.799C978.242 921.133 982.463 917.912 985.365 913.627L1152.28 667.083C1155.88 661.775 1157.17 655.239 1155.87 648.961L1113 441.517Z" stroke="#338600" stroke-width="2.5"/>
<path opacity="0.246377" d="M1139.58 459.406C1138.04 449.44 1130.37 441.533 1120.46 439.687L913.905 401.24C907.592 400.064 901.072 401.496 895.831 405.208L655.514 575.42C651.276 578.423 648.139 582.732 646.583 587.688L568.934 835.017C566.324 843.332 568.477 852.409 574.545 858.665L704.101 992.247C710.169 998.503 719.176 1000.93 727.567 998.579L977.156 928.533C982.157 927.13 986.56 924.125 989.691 919.98L1167.18 684.984C1171.05 679.86 1172.68 673.387 1171.7 667.041L1139.58 459.406Z" stroke="#338600" stroke-width="2.5"/>
<path opacity="0.26087" d="M1165.18 477.662C1164.15 467.665 1156.93 459.402 1147.17 457.028L944.682 407.819C938.431 406.3 931.831 407.382 926.392 410.816L680.139 566.326C675.73 569.11 672.36 573.267 670.549 578.157L581.413 818.772C578.39 826.93 580.071 836.088 585.793 842.642L707.361 981.883C713.083 988.437 721.931 991.337 730.423 989.443L980.863 933.582C985.952 932.446 990.526 929.668 993.88 925.676L1181.19 702.653C1185.33 697.727 1187.29 691.333 1186.63 684.935L1165.18 477.662Z" stroke="#338600" stroke-width="2.5"/>
<path opacity="0.275362" d="M1189.78 496.23C1189.25 486.229 1182.51 477.635 1172.92 474.744L975.055 415.095C968.885 413.235 962.224 413.963 956.601 417.11L705.284 557.765C700.717 560.321 697.122 564.315 695.058 569.125L594.92 802.508C591.495 810.489 592.7 819.703 598.062 826.535L711.408 970.968C716.769 977.8 725.433 981.161 733.999 979.732L984.498 937.948C989.66 937.087 994.394 934.545 997.963 930.717L1194.33 720.045C1198.73 715.331 1201.02 709.034 1200.68 702.598L1189.78 496.23Z" stroke="#338600" stroke-width="2.5"/>
<path opacity="0.289855" d="M1213.36 515.049C1213.34 505.071 1207.08 496.171 1197.7 492.776L1004.99 423.037C998.922 420.84 992.219 421.209 986.426 424.059L730.919 549.762C726.204 552.082 722.392 555.899 720.078 560.617L609.445 786.282C605.629 794.065 606.357 803.31 611.345 810.401L716.261 959.551C721.249 966.641 729.704 970.451 738.319 969.49L988.096 941.635C993.318 941.052 998.2 938.754 1001.98 935.101L1206.64 737.113C1211.28 732.624 1213.89 726.44 1213.87 719.985L1213.36 515.049Z" stroke="#338600" stroke-width="2.5"/>
<path opacity="0.304348" d="M1235.94 534.059C1236.42 524.129 1230.66 514.953 1221.51 511.065L1034.47 431.612C1028.51 429.083 1021.79 429.091 1015.84 431.635L757.014 542.337C752.163 544.412 748.141 548.042 745.583 552.656L624.983 770.149C620.788 777.716 621.039 786.967 625.64 794.295L721.946 947.678C726.547 955.007 734.769 959.253 743.408 958.762L991.699 944.64C996.966 944.34 1001.98 942.296 1005.96 938.828L1218.12 753.809C1223 749.559 1225.93 743.505 1226.24 737.045L1235.94 534.059Z" stroke="#338600" stroke-width="2.5"/>
<path opacity="0.318841" d="M1257.51 553.204C1258.48 543.346 1253.23 533.922 1244.34 529.559L1063.45 440.792C1057.63 437.937 1050.9 437.583 1044.81 439.812L783.53 535.513C778.557 537.335 774.334 540.767 771.535 545.264L641.517 754.166C636.953 761.498 636.73 770.729 640.933 778.274L728.475 935.404C732.678 942.948 740.645 947.616 749.282 947.595L995.34 946.973C1000.64 946.96 1005.78 945.176 1009.94 941.906L1228.82 770.094C1233.92 766.094 1237.16 760.184 1237.8 753.736L1257.51 553.204Z" stroke="#338600" stroke-width="2.5"/>
<path opacity="0.333333" d="M1278.07 572.423C1279.53 562.664 1274.8 553.021 1266.19 548.197L1091.9 450.542C1086.24 447.369 1079.52 446.652 1073.32 448.558L810.43 529.308C805.345 530.87 800.933 534.094 797.898 538.462L659.023 738.387C654.106 745.466 653.41 754.654 657.205 762.394L735.857 922.777C739.653 930.516 747.344 935.59 755.952 936.036L999.052 948.641C1004.36 948.917 1009.61 947.401 1013.96 944.337L1238.76 785.925C1244.07 782.186 1247.61 776.438 1248.57 770.018L1278.07 572.423Z" stroke="#338600" stroke-width="2.5"/>
<path opacity="0.347826" d="M1297.63 591.662C1299.57 582.026 1295.37 572.193 1287.07 566.928L1119.81 460.83C1114.32 457.347 1107.64 456.268 1101.33 457.845L837.68 523.742C832.498 525.037 827.904 528.042 824.64 532.27L677.487 722.868C672.229 729.677 671.065 738.797 674.444 746.709L744.108 909.849C747.487 917.76 754.879 923.226 763.433 924.138L1002.87 949.654C1008.18 950.22 1013.53 948.98 1018.05 946.132L1247.98 801.263C1253.48 797.797 1257.32 792.226 1258.6 785.85L1297.63 591.662Z" stroke="#338600" stroke-width="2.5"/>
<path opacity="0.362319" d="M1316.2 610.865C1318.61 601.375 1314.94 591.381 1306.98 585.693L1147.15 471.621C1141.85 467.836 1135.22 466.397 1128.82 467.639L865.24 518.828C859.974 519.85 855.209 522.625 851.722 526.7L696.879 707.659C691.297 714.182 689.671 723.209 692.624 731.27L753.229 896.671C756.183 904.732 763.257 910.571 771.731 911.944L1006.83 950.023C1012.13 950.881 1017.56 949.92 1022.24 947.298L1256.5 816.073C1262.18 812.888 1266.31 807.509 1267.91 801.194L1316.2 610.865Z" stroke="#338600" stroke-width="2.5"/>
<path opacity="0.376812" d="M1333.79 629.973C1336.66 620.653 1333.54 610.527 1325.92 604.437L1173.9 482.876C1168.8 478.8 1162.25 477.001 1155.78 477.904L893.073 514.574C887.737 515.319 882.814 517.856 879.11 521.768L717.177 692.806C711.287 699.028 709.203 707.94 711.726 716.128L763.227 883.291C765.75 891.479 772.487 897.673 780.858 899.501L1010.97 949.757C1016.23 950.906 1021.73 950.232 1026.56 947.845L1264.36 830.316C1270.21 827.424 1274.61 822.25 1276.53 816.011L1333.79 629.973Z" stroke="#338600" stroke-width="2.5"/>
<path opacity="0.391304" d="M1350.35 648.804C1353.67 639.677 1351.1 629.45 1343.85 622.98L1199.97 494.431C1195.09 490.074 1188.64 487.921 1182.12 488.48L921.074 510.865C915.683 511.327 910.61 513.617 906.697 517.354L738.282 678.231C732.1 684.137 729.569 692.91 731.655 701.201L774.036 869.632C776.122 877.923 782.503 884.454 790.744 886.73L1015.24 948.744C1020.46 950.184 1026.01 949.8 1030.98 947.656L1271.53 843.832C1277.54 841.24 1282.21 836.286 1284.44 830.139L1350.35 648.804Z" stroke="#338600" stroke-width="2.5"/>
<path opacity="0.405797" d="M1366.1 667.698C1369.86 658.786 1367.83 648.488 1360.98 641.661L1225.55 506.641C1220.91 502.015 1214.57 499.512 1208.02 499.724L949.402 508.101C943.969 508.277 938.761 510.311 934.647 513.864L760.362 664.372C753.906 669.948 750.936 678.558 752.582 686.929L785.851 856.138C787.497 864.508 793.506 871.354 801.593 874.07L1019.89 947.392C1025.04 949.122 1030.63 949.033 1035.72 947.139L1278.26 856.983C1284.4 854.7 1289.33 849.979 1291.87 843.94L1366.1 667.698Z" stroke="#338600" stroke-width="2.5"/>
<path opacity="0.42029" d="M1380.86 686.213C1385.04 677.536 1383.56 667.197 1377.13 660.036L1250.43 519.075C1246.04 514.192 1239.82 511.343 1233.26 511.207L977.818 505.894C972.359 505.78 967.027 507.551 962.721 510.908L783.183 650.878C776.47 656.111 773.07 664.537 774.273 672.964L798.467 842.463C799.67 850.889 805.291 858.028 813.201 861.174L1024.73 945.325C1029.8 947.343 1035.42 947.551 1040.63 945.914L1284.38 869.348C1290.64 867.38 1295.81 862.907 1298.66 856.99L1380.86 686.213Z" stroke="#338600" stroke-width="2.5"/>
</svg>
