<svg width="38" height="38" viewBox="0 0 38 38" fill="none" xmlns="http://www.w3.org/2000/svg">
<path d="M19 0C29.4934 0 38 8.50659 38 19C38 29.4934 29.4934 38 19 38C8.50659 38 0 29.4934 0 19C0 8.50659 8.50659 0 19 0ZM28.459 12.4346C28.3203 11.2695 26.9074 11.5261 26.1211 11.7881C22.0796 13.3259 18.0781 14.9772 14.0928 16.6582C11.7762 17.6845 9.29722 18.7063 7.07617 19.9297C5.99406 20.722 7.83281 21.245 9.08789 21.7646C10.4877 22.1948 12.1201 22.8539 13.5205 22.083C16.2622 20.5081 18.7989 18.6065 21.3994 16.8145C21.8727 16.5116 23.3078 15.5238 22.8223 16.6963C21.022 18.665 19.0069 20.256 17.1074 22.1279C16.4415 22.6692 15.7505 23.757 16.4961 24.5146C18.7729 26.1086 21.097 27.6512 23.4033 29.209C24.363 29.9752 25.8622 29.3555 26.0732 28.1582C26.6856 24.564 27.3141 20.9703 27.8574 17.3643C28.0715 15.7244 28.3831 14.0841 28.459 12.4346Z" fill="white"/>
</svg>
